<svg xmlns="http://www.w3.org/2000/svg" xmlns:xlink="http://www.w3.org/1999/xlink" width="350" zoomAndPan="magnify" viewBox="0 0 262.5 284.250005" height="379" preserveAspectRatio="xMidYMid meet" version="1.2"><defs><clipPath id="82c99a3986"><path d="M 0.0976562 0 L 261.90625 0 L 261.90625 283.503906 L 0.0976562 283.503906 Z M 0.0976562 0 "/></clipPath><clipPath id="0010cd771f"><path d="M 103 89.390625 L 121 89.390625 L 121 107 L 103 107 Z M 103 89.390625 "/></clipPath><clipPath id="495b6a5b3f"><path d="M 78.640625 106 L 183.363281 106 L 183.363281 194 L 78.640625 194 Z M 78.640625 106 "/></clipPath></defs><g id="f9b627e2db"><g clip-rule="nonzero" clip-path="url(#82c99a3986)"><path style=" stroke:none;fill-rule:nonzero;fill:#ffffff;fill-opacity:1;" d="M 0.0976562 0 L 261.90625 0 L 261.90625 283.503906 L 0.0976562 283.503906 Z M 0.0976562 0 "/><path style=" stroke:none;fill-rule:nonzero;fill:#ffffff;fill-opacity:1;" d="M 0.0976562 0 L 261.90625 0 L 261.90625 283.503906 L 0.0976562 283.503906 Z M 0.0976562 0 "/></g><path style=" stroke:none;fill-rule:nonzero;fill:#000000;fill-opacity:1;" d="M 177.785156 188.472656 L 177.300781 187.847656 L 169.8125 171.964844 L 170.921875 166.902344 L 161.039062 169.261719 L 161.105469 172.902344 C 161.074219 173.179688 161.105469 173.492188 161.140625 173.800781 L 161.140625 173.90625 L 161.175781 173.941406 C 161.28125 174.390625 161.453125 174.808594 161.730469 175.15625 L 172.6875 192.25 C 173.765625 193.671875 175.742188 193.949219 177.128906 192.910156 C 178.550781 191.835938 178.828125 189.859375 177.785156 188.472656 Z M 177.785156 188.472656 "/><path style=" stroke:none;fill-rule:nonzero;fill:#000000;fill-opacity:1;" d="M 144.480469 123.945312 C 149.117188 125.140625 153.84375 122.351562 155.042969 117.714844 C 156.238281 113.082031 153.453125 108.355469 148.8125 107.15625 C 144.175781 105.960938 139.453125 108.746094 138.25 113.382812 C 137.058594 118.015625 139.84375 122.746094 144.480469 123.945312 Z M 144.480469 123.945312 "/><path style=" stroke:none;fill-rule:nonzero;fill:#000000;fill-opacity:1;" d="M 89.359375 174.808594 L 89.429688 174.703125 L 100.320312 153.757812 L 92.722656 147.550781 L 90.921875 153.449219 L 83.847656 170.542969 L 83.570312 170.992188 C 83.535156 171.0625 83.5 171.132812 83.464844 171.203125 L 83.429688 171.238281 C 83.222656 171.722656 83.085938 172.242188 83.085938 172.761719 C 83.085938 174.667969 84.644531 176.230469 86.550781 176.230469 C 87.660156 176.230469 88.703125 175.710938 89.359375 174.808594 Z M 89.359375 174.808594 "/><g clip-rule="nonzero" clip-path="url(#0010cd771f)"><path style=" stroke:none;fill-rule:nonzero;fill:#000000;fill-opacity:1;" d="M 120.605469 98.242188 C 120.605469 98.8125 120.550781 99.375 120.4375 99.933594 C 120.328125 100.492188 120.164062 101.035156 119.945312 101.558594 C 119.726562 102.085938 119.460938 102.585938 119.144531 103.058594 C 118.828125 103.53125 118.46875 103.96875 118.066406 104.371094 C 117.664062 104.773438 117.226562 105.132812 116.75 105.449219 C 116.277344 105.765625 115.777344 106.035156 115.253906 106.25 C 114.726562 106.46875 114.183594 106.632812 113.625 106.746094 C 113.070312 106.855469 112.503906 106.910156 111.933594 106.910156 C 111.367188 106.910156 110.800781 106.855469 110.242188 106.746094 C 109.6875 106.632812 109.144531 106.46875 108.617188 106.25 C 108.09375 106.035156 107.59375 105.765625 107.117188 105.449219 C 106.644531 105.132812 106.207031 104.773438 105.804688 104.371094 C 105.402344 103.96875 105.042969 103.53125 104.726562 103.058594 C 104.410156 102.585938 104.144531 102.085938 103.925781 101.558594 C 103.707031 101.035156 103.542969 100.492188 103.433594 99.933594 C 103.320312 99.375 103.265625 98.8125 103.265625 98.242188 C 103.265625 97.671875 103.320312 97.109375 103.433594 96.550781 C 103.542969 95.992188 103.707031 95.449219 103.925781 94.925781 C 104.144531 94.398438 104.410156 93.898438 104.726562 93.425781 C 105.042969 92.953125 105.402344 92.515625 105.804688 92.113281 C 106.207031 91.710938 106.644531 91.351562 107.117188 91.035156 C 107.59375 90.71875 108.09375 90.449219 108.617188 90.234375 C 109.144531 90.015625 109.6875 89.851562 110.242188 89.738281 C 110.800781 89.628906 111.367188 89.574219 111.933594 89.574219 C 112.503906 89.574219 113.070312 89.628906 113.625 89.738281 C 114.183594 89.851562 114.726562 90.015625 115.253906 90.234375 C 115.777344 90.449219 116.277344 90.71875 116.75 91.035156 C 117.226562 91.351562 117.664062 91.710938 118.066406 92.113281 C 118.46875 92.515625 118.828125 92.953125 119.144531 93.425781 C 119.460938 93.898438 119.726562 94.398438 119.945312 94.925781 C 120.164062 95.449219 120.328125 95.992188 120.4375 96.550781 C 120.550781 97.109375 120.605469 97.671875 120.605469 98.242188 Z M 120.605469 98.242188 "/></g><g clip-rule="nonzero" clip-path="url(#495b6a5b3f)"><path style=" stroke:none;fill-rule:nonzero;fill:#000000;fill-opacity:1;" d="M 181.980469 141.3125 C 180.664062 142.628906 178.445312 142.628906 177.09375 141.3125 C 177.023438 141.242188 176.988281 141.207031 176.953125 141.101562 L 172.65625 134.617188 L 163.152344 132.953125 L 172.65625 151.957031 C 173.347656 153.515625 173.554688 155.320312 173.105469 157.089844 L 172.585938 159.410156 L 160.863281 162.152344 L 147.410156 165.03125 L 133.503906 176.4375 C 133.578125 176.828125 133.589844 176.894531 133.664062 177.285156 C 138.355469 178.871094 143.242188 182.496094 144.566406 189.617188 C 144.949219 191.683594 143.234375 193.570312 141.128906 193.570312 L 141.101562 193.570312 C 139.398438 193.570312 138.046875 192.3125 137.679688 190.652344 C 137.011719 187.609375 135.292969 185.78125 133.433594 184.726562 C 131.042969 183.339844 128.40625 183.199219 127.539062 183.199219 L 82.355469 183.199219 C 80.449219 183.164062 78.921875 181.570312 78.921875 179.664062 C 78.957031 177.753906 80.554688 176.230469 82.460938 176.265625 L 127.644531 176.265625 C 127.886719 176.265625 128.128906 176.265625 128.40625 176.300781 C 127.609375 175.191406 127.609375 173.699219 128.476562 172.589844 L 142.695312 156.601562 C 143.039062 156.152344 143.492188 155.804688 144.011719 155.597656 L 144.046875 155.5625 C 144.148438 155.527344 144.289062 155.492188 144.394531 155.457031 L 155.316406 151.957031 L 148.378906 138.085938 L 138.636719 139.992188 C 138.171875 140.054688 137.707031 140.117188 137.242188 140.179688 L 127.226562 140.894531 C 125.703125 140.894531 124.417969 139.785156 124.140625 138.292969 C 124.003906 137.390625 124.246094 136.523438 124.730469 135.867188 L 118.433594 130.355469 C 118.207031 130.097656 117.988281 129.847656 117.761719 129.589844 L 114.121094 124.144531 L 110.027344 138.015625 L 110.027344 138.121094 L 116.511719 149.980469 C 116.789062 150.394531 116.964844 150.847656 117.066406 151.296875 L 120.570312 172.035156 L 120.570312 172.070312 C 120.605469 172.3125 120.640625 172.519531 120.640625 172.761719 C 120.640625 174.667969 119.078125 176.230469 117.171875 176.230469 C 115.507812 176.230469 114.085938 175.050781 113.773438 173.457031 L 113.425781 171.722656 L 109.507812 153.726562 L 96.019531 143.078125 L 95.984375 143.007812 C 94.113281 141.414062 92.863281 139.054688 92.863281 136.386719 C 92.863281 135.796875 92.933594 135.207031 93.035156 134.652344 L 93.035156 134.617188 C 93.035156 134.582031 96.921875 121.753906 98.898438 114.332031 L 91.648438 116.726562 L 85.371094 126.121094 C 84.296875 127.71875 82.148438 128.167969 80.585938 127.09375 C 78.992188 126.054688 78.542969 123.902344 79.617188 122.308594 L 86.550781 111.90625 C 86.96875 111.246094 87.59375 110.761719 88.320312 110.519531 L 98.722656 107.050781 C 99.625 106.773438 100.5625 106.84375 101.394531 107.257812 L 115.265625 114.195312 C 115.785156 114.4375 116.269531 114.851562 116.582031 115.371094 L 123.273438 125.359375 L 132.878906 133.785156 L 144.914062 131.148438 L 156.632812 125.289062 C 158.019531 124.597656 159.59375 124.386719 161.113281 124.695312 L 174.664062 127.441406 C 175.601562 127.578125 176.433594 128.132812 176.953125 128.894531 L 182.015625 136.386719 C 183.335938 137.738281 183.371094 139.921875 181.980469 141.3125 Z M 181.980469 141.3125 "/></g></g></svg>