<svg xmlns="http://www.w3.org/2000/svg" xmlns:xlink="http://www.w3.org/1999/xlink" width="50" zoomAndPan="magnify" viewBox="0 0 37.5 37.499999" height="50" preserveAspectRatio="xMidYMid meet" version="1.2"><defs><clipPath id="78ba618667"><path d="M 0 0 L 37.007812 0 L 37.007812 37.007812 L 0 37.007812 Z M 0 0 "/></clipPath><clipPath id="a0129c172d"><path d="M 11.65625 11.65625 L 24.980469 11.65625 L 24.980469 24.980469 L 11.65625 24.980469 Z M 11.65625 11.65625 "/></clipPath><clipPath id="5ee658dbe8"><path d="M 21.308594 16.285156 L 21.304688 16.28125 C 21.300781 16.28125 21.296875 16.28125 21.296875 16.277344 C 21.289062 16.269531 21.285156 16.257812 21.285156 16.246094 L 21.554688 14.605469 L 22.8125 15.863281 L 21.503906 16.421875 C 21.5 16.421875 21.496094 16.421875 21.492188 16.421875 L 21.488281 16.421875 C 21.484375 16.421875 21.484375 16.417969 21.480469 16.417969 C 21.429688 16.363281 21.375 16.316406 21.308594 16.285156 Z M 23.132812 16.183594 L 24.480469 17.527344 C 24.761719 17.808594 24.898438 17.949219 24.949219 18.109375 C 24.957031 18.132812 24.964844 18.15625 24.96875 18.183594 L 21.753906 16.820312 C 21.75 16.820312 21.75 16.820312 21.746094 16.820312 C 21.734375 16.8125 21.71875 16.808594 21.71875 16.796875 C 21.71875 16.78125 21.734375 16.777344 21.746094 16.769531 L 21.753906 16.769531 Z M 24.914062 18.613281 C 24.84375 18.742188 24.710938 18.878906 24.480469 19.109375 L 22.964844 20.625 L 21 20.214844 L 20.988281 20.214844 C 20.972656 20.210938 20.953125 20.207031 20.953125 20.191406 C 20.9375 20.027344 20.855469 19.878906 20.726562 19.777344 C 20.71875 19.769531 20.71875 19.757812 20.722656 19.746094 C 20.722656 19.746094 20.722656 19.742188 20.722656 19.742188 L 21.09375 17.476562 L 21.09375 17.46875 C 21.097656 17.453125 21.097656 17.433594 21.117188 17.433594 C 21.273438 17.414062 21.421875 17.328125 21.519531 17.203125 C 21.519531 17.199219 21.523438 17.195312 21.527344 17.191406 C 21.539062 17.1875 21.550781 17.191406 21.5625 17.199219 Z M 22.613281 20.972656 L 20.117188 23.464844 L 20.546875 20.84375 L 20.546875 20.839844 C 20.546875 20.835938 20.546875 20.832031 20.546875 20.828125 C 20.550781 20.820312 20.5625 20.816406 20.570312 20.816406 L 20.574219 20.8125 C 20.667969 20.773438 20.75 20.710938 20.816406 20.632812 C 20.824219 20.625 20.832031 20.613281 20.847656 20.613281 C 20.851562 20.613281 20.851562 20.613281 20.855469 20.613281 Z M 19.589844 23.992188 L 19.308594 24.273438 L 16.199219 19.785156 C 16.199219 19.785156 16.195312 19.78125 16.195312 19.78125 C 16.191406 19.773438 16.183594 19.765625 16.1875 19.757812 C 16.1875 19.753906 16.191406 19.75 16.195312 19.746094 L 16.199219 19.738281 C 16.207031 19.726562 16.214844 19.710938 16.222656 19.699219 L 16.230469 19.6875 L 16.230469 19.683594 C 16.238281 19.675781 16.242188 19.667969 16.25 19.664062 C 16.257812 19.660156 16.265625 19.660156 16.273438 19.664062 L 19.71875 20.371094 C 19.730469 20.375 19.738281 20.378906 19.746094 20.382812 C 19.75 20.390625 19.753906 20.394531 19.753906 20.398438 C 19.800781 20.582031 19.933594 20.734375 20.109375 20.808594 C 20.121094 20.8125 20.117188 20.824219 20.109375 20.832031 C 20.109375 20.839844 20.109375 20.84375 20.105469 20.847656 C 20.0625 21.113281 19.691406 23.382812 19.589844 23.992188 Z M 19.003906 24.582031 C 18.796875 24.785156 18.671875 24.894531 18.535156 24.9375 C 18.398438 24.980469 18.253906 24.980469 18.117188 24.9375 C 17.953125 24.886719 17.8125 24.746094 17.535156 24.46875 L 14.410156 21.347656 L 15.226562 20.082031 C 15.230469 20.078125 15.234375 20.070312 15.242188 20.066406 C 15.25 20.0625 15.261719 20.0625 15.273438 20.066406 C 15.460938 20.125 15.660156 20.113281 15.839844 20.039062 C 15.851562 20.035156 15.859375 20.03125 15.867188 20.039062 C 15.871094 20.042969 15.875 20.046875 15.878906 20.050781 Z M 14.109375 21.046875 L 13.394531 20.332031 L 14.808594 19.726562 C 14.8125 19.726562 14.816406 19.726562 14.820312 19.726562 C 14.832031 19.726562 14.839844 19.738281 14.84375 19.746094 C 14.859375 19.769531 14.875 19.792969 14.890625 19.8125 L 14.894531 19.816406 C 14.898438 19.824219 14.894531 19.828125 14.890625 19.835938 Z M 13.078125 20.015625 L 12.171875 19.109375 C 12.015625 18.953125 11.90625 18.84375 11.828125 18.746094 L 14.582031 19.316406 C 14.585938 19.320312 14.589844 19.320312 14.59375 19.320312 C 14.609375 19.324219 14.628906 19.324219 14.628906 19.339844 C 14.628906 19.359375 14.609375 19.367188 14.589844 19.375 L 14.582031 19.378906 Z M 11.667969 18.28125 C 11.671875 18.222656 11.683594 18.164062 11.699219 18.109375 C 11.75 17.949219 11.890625 17.808594 12.171875 17.527344 L 13.332031 16.371094 C 13.863281 17.144531 14.398438 17.917969 14.9375 18.691406 C 14.945312 18.703125 14.957031 18.714844 14.945312 18.726562 C 14.894531 18.78125 14.84375 18.84375 14.808594 18.910156 C 14.804688 18.917969 14.800781 18.925781 14.792969 18.933594 C 14.785156 18.933594 14.78125 18.933594 14.777344 18.933594 Z M 13.640625 16.058594 L 15.199219 14.503906 C 15.347656 14.566406 15.878906 14.792969 16.359375 14.992188 C 16.71875 15.144531 17.046875 15.285156 17.152344 15.328125 C 17.160156 15.332031 17.171875 15.335938 17.175781 15.347656 C 17.179688 15.355469 17.175781 15.363281 17.175781 15.367188 C 17.125 15.597656 17.195312 15.835938 17.359375 16.003906 C 17.367188 16.011719 17.359375 16.027344 17.347656 16.042969 L 17.34375 16.046875 L 15.761719 18.5 C 15.753906 18.503906 15.753906 18.511719 15.746094 18.515625 C 15.738281 18.519531 15.726562 18.519531 15.714844 18.515625 C 15.652344 18.5 15.589844 18.492188 15.527344 18.492188 C 15.46875 18.492188 15.40625 18.5 15.34375 18.511719 C 15.339844 18.511719 15.332031 18.515625 15.328125 18.511719 C 15.320312 18.503906 15.316406 18.5 15.3125 18.492188 Z M 15.515625 14.1875 L 17.535156 12.171875 C 17.8125 11.890625 17.953125 11.75 18.117188 11.699219 C 18.253906 11.65625 18.398438 11.65625 18.535156 11.699219 C 18.695312 11.75 18.835938 11.890625 19.117188 12.171875 L 19.554688 12.609375 L 18.117188 14.828125 C 18.113281 14.835938 18.109375 14.839844 18.101562 14.847656 C 18.09375 14.851562 18.082031 14.847656 18.070312 14.847656 C 17.84375 14.777344 17.59375 14.824219 17.40625 14.972656 C 17.394531 14.984375 17.382812 14.976562 17.371094 14.972656 C 17.183594 14.890625 15.722656 14.277344 15.515625 14.1875 Z M 19.859375 12.914062 L 21.183594 14.238281 L 20.863281 16.214844 L 20.863281 16.21875 C 20.863281 16.222656 20.863281 16.226562 20.863281 16.230469 C 20.859375 16.238281 20.851562 16.238281 20.84375 16.242188 C 20.777344 16.261719 20.710938 16.296875 20.65625 16.335938 C 20.652344 16.339844 20.648438 16.339844 20.648438 16.34375 C 20.644531 16.347656 20.640625 16.351562 20.632812 16.351562 C 20.628906 16.351562 20.625 16.351562 20.617188 16.347656 L 18.597656 15.492188 L 18.59375 15.488281 C 18.582031 15.484375 18.566406 15.476562 18.566406 15.464844 C 18.554688 15.351562 18.519531 15.246094 18.457031 15.148438 C 18.449219 15.132812 18.4375 15.113281 18.445312 15.097656 Z M 18.492188 15.898438 L 20.386719 16.699219 C 20.398438 16.703125 20.410156 16.707031 20.414062 16.71875 C 20.414062 16.726562 20.414062 16.734375 20.414062 16.738281 C 20.410156 16.765625 20.402344 16.796875 20.402344 16.832031 L 20.402344 16.882812 C 20.402344 16.894531 20.390625 16.902344 20.378906 16.90625 L 20.375 16.910156 C 20.074219 17.035156 16.160156 18.703125 16.15625 18.703125 C 16.148438 18.703125 16.144531 18.703125 16.136719 18.699219 C 16.125 18.6875 16.136719 18.671875 16.144531 18.660156 C 16.148438 18.65625 16.148438 18.65625 16.152344 18.652344 L 17.707031 16.246094 L 17.710938 16.242188 C 17.71875 16.226562 17.730469 16.210938 17.746094 16.210938 L 17.761719 16.210938 C 17.796875 16.21875 17.828125 16.222656 17.859375 16.222656 C 18.097656 16.222656 18.316406 16.105469 18.449219 15.910156 C 18.449219 15.90625 18.453125 15.898438 18.460938 15.894531 C 18.46875 15.890625 18.480469 15.894531 18.492188 15.898438 Z M 16.324219 19.085938 L 20.589844 17.265625 C 20.589844 17.265625 20.59375 17.265625 20.601562 17.273438 C 20.625 17.296875 20.644531 17.3125 20.664062 17.328125 L 20.671875 17.332031 C 20.679688 17.335938 20.691406 17.34375 20.691406 17.351562 C 20.691406 17.355469 20.691406 17.359375 20.691406 17.359375 L 20.324219 19.601562 L 20.324219 19.609375 C 20.320312 19.628906 20.320312 19.648438 20.300781 19.648438 C 20.105469 19.660156 19.925781 19.773438 19.824219 19.941406 L 19.824219 19.945312 C 19.820312 19.953125 19.8125 19.960938 19.804688 19.964844 C 19.800781 19.96875 19.789062 19.96875 19.78125 19.964844 L 16.378906 19.265625 C 16.378906 19.265625 16.328125 19.085938 16.324219 19.085938 Z M 16.324219 19.085938 "/></clipPath><radialGradient gradientTransform="matrix(0.999995,0,0,1.000005,11.66827,11.668272)" id="06363cdf95" gradientUnits="userSpaceOnUse" r="13.30165" cx="6.650825" fx="6.650825" cy="-6.650825" fy="-6.650825"><stop style="stop-color:#002e6b;stop-opacity:1;" offset="0"/><stop style="stop-color:#002f6c;stop-opacity:1;" offset="0.00390625"/><stop style="stop-color:#00306d;stop-opacity:1;" offset="0.0078125"/><stop style="stop-color:#00316d;stop-opacity:1;" offset="0.0117188"/><stop style="stop-color:#00326e;stop-opacity:1;" offset="0.015625"/><stop style="stop-color:#00326e;stop-opacity:1;" offset="0.0195312"/><stop style="stop-color:#00336f;stop-opacity:1;" offset="0.0234375"/><stop style="stop-color:#00346f;stop-opacity:1;" offset="0.0273438"/><stop style="stop-color:#003570;stop-opacity:1;" offset="0.03125"/><stop style="stop-color:#003671;stop-opacity:1;" offset="0.0351562"/><stop style="stop-color:#003671;stop-opacity:1;" offset="0.0390625"/><stop style="stop-color:#003772;stop-opacity:1;" offset="0.0429688"/><stop style="stop-color:#003872;stop-opacity:1;" offset="0.046875"/><stop style="stop-color:#003973;stop-opacity:1;" offset="0.0507812"/><stop style="stop-color:#003a73;stop-opacity:1;" offset="0.0546875"/><stop style="stop-color:#003b74;stop-opacity:1;" offset="0.0585938"/><stop style="stop-color:#003b75;stop-opacity:1;" offset="0.0625"/><stop style="stop-color:#003c75;stop-opacity:1;" offset="0.0664062"/><stop style="stop-color:#003d76;stop-opacity:1;" offset="0.0703125"/><stop style="stop-color:#003e76;stop-opacity:1;" offset="0.0742188"/><stop style="stop-color:#003f77;stop-opacity:1;" offset="0.078125"/><stop style="stop-color:#003f78;stop-opacity:1;" offset="0.0820312"/><stop style="stop-color:#004078;stop-opacity:1;" offset="0.0859375"/><stop style="stop-color:#004179;stop-opacity:1;" offset="0.0898438"/><stop style="stop-color:#004279;stop-opacity:1;" offset="0.09375"/><stop style="stop-color:#00437a;stop-opacity:1;" offset="0.0976562"/><stop style="stop-color:#00447a;stop-opacity:1;" offset="0.101562"/><stop style="stop-color:#00447b;stop-opacity:1;" offset="0.105469"/><stop style="stop-color:#00457c;stop-opacity:1;" offset="0.109375"/><stop style="stop-color:#00467c;stop-opacity:1;" offset="0.113281"/><stop style="stop-color:#00477d;stop-opacity:1;" offset="0.117188"/><stop style="stop-color:#00487d;stop-opacity:1;" offset="0.121094"/><stop style="stop-color:#00487e;stop-opacity:1;" offset="0.125"/><stop style="stop-color:#00497e;stop-opacity:1;" offset="0.128906"/><stop style="stop-color:#004a7f;stop-opacity:1;" offset="0.132812"/><stop style="stop-color:#004b80;stop-opacity:1;" offset="0.136719"/><stop style="stop-color:#004c80;stop-opacity:1;" offset="0.140625"/><stop style="stop-color:#004d81;stop-opacity:1;" offset="0.144531"/><stop style="stop-color:#004d81;stop-opacity:1;" offset="0.148438"/><stop style="stop-color:#004e82;stop-opacity:1;" offset="0.152344"/><stop style="stop-color:#004f82;stop-opacity:1;" offset="0.15625"/><stop style="stop-color:#005083;stop-opacity:1;" offset="0.160156"/><stop style="stop-color:#005184;stop-opacity:1;" offset="0.164062"/><stop style="stop-color:#005184;stop-opacity:1;" offset="0.167969"/><stop style="stop-color:#005285;stop-opacity:1;" offset="0.171875"/><stop style="stop-color:#005385;stop-opacity:1;" offset="0.175781"/><stop style="stop-color:#005486;stop-opacity:1;" offset="0.179688"/><stop style="stop-color:#005587;stop-opacity:1;" offset="0.183594"/><stop style="stop-color:#005687;stop-opacity:1;" offset="0.1875"/><stop style="stop-color:#005688;stop-opacity:1;" offset="0.191406"/><stop style="stop-color:#005788;stop-opacity:1;" offset="0.195312"/><stop style="stop-color:#005889;stop-opacity:1;" offset="0.199219"/><stop style="stop-color:#005989;stop-opacity:1;" offset="0.203125"/><stop style="stop-color:#005a8a;stop-opacity:1;" offset="0.207031"/><stop style="stop-color:#005a8b;stop-opacity:1;" offset="0.210938"/><stop style="stop-color:#005b8b;stop-opacity:1;" offset="0.214844"/><stop style="stop-color:#005c8c;stop-opacity:1;" offset="0.21875"/><stop style="stop-color:#005d8c;stop-opacity:1;" offset="0.222656"/><stop style="stop-color:#005e8d;stop-opacity:1;" offset="0.226562"/><stop style="stop-color:#005e8d;stop-opacity:1;" offset="0.230469"/><stop style="stop-color:#005f8e;stop-opacity:1;" offset="0.234375"/><stop style="stop-color:#00608f;stop-opacity:1;" offset="0.238281"/><stop style="stop-color:#00618f;stop-opacity:1;" offset="0.242188"/><stop style="stop-color:#006290;stop-opacity:1;" offset="0.246094"/><stop style="stop-color:#006390;stop-opacity:1;" offset="0.25"/><stop style="stop-color:#006391;stop-opacity:1;" offset="0.253906"/><stop style="stop-color:#006492;stop-opacity:1;" offset="0.257812"/><stop style="stop-color:#006592;stop-opacity:1;" offset="0.261719"/><stop style="stop-color:#006693;stop-opacity:1;" offset="0.265625"/><stop style="stop-color:#006793;stop-opacity:1;" offset="0.269531"/><stop style="stop-color:#006794;stop-opacity:1;" offset="0.273438"/><stop style="stop-color:#006894;stop-opacity:1;" offset="0.277344"/><stop style="stop-color:#006995;stop-opacity:1;" offset="0.28125"/><stop style="stop-color:#006a96;stop-opacity:1;" offset="0.285156"/><stop style="stop-color:#006b96;stop-opacity:1;" offset="0.289062"/><stop style="stop-color:#006c97;stop-opacity:1;" offset="0.292969"/><stop style="stop-color:#006c97;stop-opacity:1;" offset="0.296875"/><stop style="stop-color:#006d98;stop-opacity:1;" offset="0.300781"/><stop style="stop-color:#006e98;stop-opacity:1;" offset="0.304688"/><stop style="stop-color:#006f99;stop-opacity:1;" offset="0.308594"/><stop style="stop-color:#00709a;stop-opacity:1;" offset="0.3125"/><stop style="stop-color:#00709a;stop-opacity:1;" offset="0.316406"/><stop style="stop-color:#00719b;stop-opacity:1;" offset="0.320312"/><stop style="stop-color:#00729b;stop-opacity:1;" offset="0.324219"/><stop style="stop-color:#00739c;stop-opacity:1;" offset="0.328125"/><stop style="stop-color:#00749c;stop-opacity:1;" offset="0.332031"/><stop style="stop-color:#00759d;stop-opacity:1;" offset="0.335938"/><stop style="stop-color:#00759e;stop-opacity:1;" offset="0.339844"/><stop style="stop-color:#00769e;stop-opacity:1;" offset="0.34375"/><stop style="stop-color:#00779f;stop-opacity:1;" offset="0.347656"/><stop style="stop-color:#00789f;stop-opacity:1;" offset="0.351562"/><stop style="stop-color:#0079a0;stop-opacity:1;" offset="0.355469"/><stop style="stop-color:#0079a1;stop-opacity:1;" offset="0.359375"/><stop style="stop-color:#007aa1;stop-opacity:1;" offset="0.363281"/><stop style="stop-color:#007ba2;stop-opacity:1;" offset="0.367188"/><stop style="stop-color:#007ca2;stop-opacity:1;" offset="0.371094"/><stop style="stop-color:#007da3;stop-opacity:1;" offset="0.375"/><stop style="stop-color:#007ea3;stop-opacity:1;" offset="0.378906"/><stop style="stop-color:#007ea4;stop-opacity:1;" offset="0.382812"/><stop style="stop-color:#007fa5;stop-opacity:1;" offset="0.386719"/><stop style="stop-color:#0080a5;stop-opacity:1;" offset="0.390625"/><stop style="stop-color:#0081a6;stop-opacity:1;" offset="0.394531"/><stop style="stop-color:#0082a6;stop-opacity:1;" offset="0.398438"/><stop style="stop-color:#0082a7;stop-opacity:1;" offset="0.402344"/><stop style="stop-color:#0083a7;stop-opacity:1;" offset="0.40625"/><stop style="stop-color:#0084a8;stop-opacity:1;" offset="0.410156"/><stop style="stop-color:#0085a9;stop-opacity:1;" offset="0.414062"/><stop style="stop-color:#0086a9;stop-opacity:1;" offset="0.417969"/><stop style="stop-color:#0087aa;stop-opacity:1;" offset="0.421875"/><stop style="stop-color:#0087aa;stop-opacity:1;" offset="0.425781"/><stop style="stop-color:#0088ab;stop-opacity:1;" offset="0.429688"/><stop style="stop-color:#0089ac;stop-opacity:1;" offset="0.433594"/><stop style="stop-color:#008aac;stop-opacity:1;" offset="0.4375"/><stop style="stop-color:#008bad;stop-opacity:1;" offset="0.441406"/><stop style="stop-color:#008bad;stop-opacity:1;" offset="0.445312"/><stop style="stop-color:#008cae;stop-opacity:1;" offset="0.449219"/><stop style="stop-color:#008dae;stop-opacity:1;" offset="0.453125"/><stop style="stop-color:#008eaf;stop-opacity:1;" offset="0.457031"/><stop style="stop-color:#008fb0;stop-opacity:1;" offset="0.460938"/><stop style="stop-color:#0090b0;stop-opacity:1;" offset="0.464844"/><stop style="stop-color:#0090b1;stop-opacity:1;" offset="0.46875"/><stop style="stop-color:#0091b1;stop-opacity:1;" offset="0.472656"/><stop style="stop-color:#0092b2;stop-opacity:1;" offset="0.476562"/><stop style="stop-color:#0093b2;stop-opacity:1;" offset="0.480469"/><stop style="stop-color:#0094b3;stop-opacity:1;" offset="0.484375"/><stop style="stop-color:#0094b4;stop-opacity:1;" offset="0.488281"/><stop style="stop-color:#0195b4;stop-opacity:1;" offset="0.492188"/><stop style="stop-color:#0196b5;stop-opacity:1;" offset="0.496094"/><stop style="stop-color:#0197b5;stop-opacity:1;" offset="0.5"/><stop style="stop-color:#0198b6;stop-opacity:1;" offset="0.503906"/><stop style="stop-color:#0198b6;stop-opacity:1;" offset="0.507812"/><stop style="stop-color:#0199b7;stop-opacity:1;" offset="0.511719"/><stop style="stop-color:#019ab8;stop-opacity:1;" offset="0.515625"/><stop style="stop-color:#019bb8;stop-opacity:1;" offset="0.519531"/><stop style="stop-color:#019cb9;stop-opacity:1;" offset="0.523438"/><stop style="stop-color:#019db9;stop-opacity:1;" offset="0.527344"/><stop style="stop-color:#019dba;stop-opacity:1;" offset="0.53125"/><stop style="stop-color:#019ebb;stop-opacity:1;" offset="0.535156"/><stop style="stop-color:#019fbb;stop-opacity:1;" offset="0.539062"/><stop style="stop-color:#01a0bc;stop-opacity:1;" offset="0.542969"/><stop style="stop-color:#01a1bc;stop-opacity:1;" offset="0.546875"/><stop style="stop-color:#01a1bd;stop-opacity:1;" offset="0.550781"/><stop style="stop-color:#01a2bd;stop-opacity:1;" offset="0.554688"/><stop style="stop-color:#01a3be;stop-opacity:1;" offset="0.558594"/><stop style="stop-color:#01a4bf;stop-opacity:1;" offset="0.5625"/><stop style="stop-color:#01a5bf;stop-opacity:1;" offset="0.566406"/><stop style="stop-color:#01a6c0;stop-opacity:1;" offset="0.570312"/><stop style="stop-color:#01a6c0;stop-opacity:1;" offset="0.574219"/><stop style="stop-color:#01a7c1;stop-opacity:1;" offset="0.578125"/><stop style="stop-color:#01a8c1;stop-opacity:1;" offset="0.582031"/><stop style="stop-color:#01a9c2;stop-opacity:1;" offset="0.585938"/><stop style="stop-color:#01aac3;stop-opacity:1;" offset="0.589844"/><stop style="stop-color:#01aac3;stop-opacity:1;" offset="0.59375"/><stop style="stop-color:#01abc4;stop-opacity:1;" offset="0.597656"/><stop style="stop-color:#01acc4;stop-opacity:1;" offset="0.601562"/><stop style="stop-color:#01adc5;stop-opacity:1;" offset="0.605469"/><stop style="stop-color:#01aec6;stop-opacity:1;" offset="0.609375"/><stop style="stop-color:#01afc6;stop-opacity:1;" offset="0.613281"/><stop style="stop-color:#01afc7;stop-opacity:1;" offset="0.617188"/><stop style="stop-color:#01b0c7;stop-opacity:1;" offset="0.621094"/><stop style="stop-color:#01b1c8;stop-opacity:1;" offset="0.625"/><stop style="stop-color:#01b2c8;stop-opacity:1;" offset="0.628906"/><stop style="stop-color:#01b3c9;stop-opacity:1;" offset="0.632812"/><stop style="stop-color:#01b3ca;stop-opacity:1;" offset="0.636719"/><stop style="stop-color:#01b4ca;stop-opacity:1;" offset="0.640625"/><stop style="stop-color:#01b5cb;stop-opacity:1;" offset="0.644531"/><stop style="stop-color:#01b6cb;stop-opacity:1;" offset="0.648438"/><stop style="stop-color:#01b7cc;stop-opacity:1;" offset="0.652344"/><stop style="stop-color:#01b8cc;stop-opacity:1;" offset="0.65625"/><stop style="stop-color:#01b8cd;stop-opacity:1;" offset="0.660156"/><stop style="stop-color:#01b9ce;stop-opacity:1;" offset="0.664062"/><stop style="stop-color:#01bace;stop-opacity:1;" offset="0.667969"/><stop style="stop-color:#01bbcf;stop-opacity:1;" offset="0.671875"/><stop style="stop-color:#01bccf;stop-opacity:1;" offset="0.675781"/><stop style="stop-color:#01bcd0;stop-opacity:1;" offset="0.679688"/><stop style="stop-color:#01bdd0;stop-opacity:1;" offset="0.683594"/><stop style="stop-color:#01bed1;stop-opacity:1;" offset="0.6875"/><stop style="stop-color:#01bfd2;stop-opacity:1;" offset="0.691406"/><stop style="stop-color:#01c0d2;stop-opacity:1;" offset="0.695312"/><stop style="stop-color:#01c1d3;stop-opacity:1;" offset="0.699219"/><stop style="stop-color:#01c1d3;stop-opacity:1;" offset="0.703125"/><stop style="stop-color:#01c2d4;stop-opacity:1;" offset="0.707031"/><stop style="stop-color:#01c3d5;stop-opacity:1;" offset="0.710938"/><stop style="stop-color:#01c4d5;stop-opacity:1;" offset="0.714844"/><stop style="stop-color:#01c5d6;stop-opacity:1;" offset="0.71875"/><stop style="stop-color:#01c5d6;stop-opacity:1;" offset="0.722656"/><stop style="stop-color:#01c6d7;stop-opacity:1;" offset="0.726562"/><stop style="stop-color:#01c7d7;stop-opacity:1;" offset="0.730469"/><stop style="stop-color:#01c8d8;stop-opacity:1;" offset="0.734375"/><stop style="stop-color:#01c9d9;stop-opacity:1;" offset="0.738281"/><stop style="stop-color:#01c9d9;stop-opacity:1;" offset="0.742188"/><stop style="stop-color:#01cada;stop-opacity:1;" offset="0.746094"/><stop style="stop-color:#01cbda;stop-opacity:1;" offset="0.75"/><stop style="stop-color:#01ccdb;stop-opacity:1;" offset="0.753906"/><stop style="stop-color:#01cddb;stop-opacity:1;" offset="0.757812"/><stop style="stop-color:#01cedc;stop-opacity:1;" offset="0.761719"/><stop style="stop-color:#01cedd;stop-opacity:1;" offset="0.765625"/><stop style="stop-color:#01cfdd;stop-opacity:1;" offset="0.769531"/><stop style="stop-color:#01d0de;stop-opacity:1;" offset="0.773438"/><stop style="stop-color:#01d1de;stop-opacity:1;" offset="0.777344"/><stop style="stop-color:#01d2df;stop-opacity:1;" offset="0.78125"/><stop style="stop-color:#01d2e0;stop-opacity:1;" offset="0.785156"/><stop style="stop-color:#01d3e0;stop-opacity:1;" offset="0.789062"/><stop style="stop-color:#01d4e1;stop-opacity:1;" offset="0.792969"/><stop style="stop-color:#01d5e1;stop-opacity:1;" offset="0.796875"/><stop style="stop-color:#01d6e2;stop-opacity:1;" offset="0.800781"/><stop style="stop-color:#01d7e2;stop-opacity:1;" offset="0.804688"/><stop style="stop-color:#01d7e3;stop-opacity:1;" offset="0.808594"/><stop style="stop-color:#01d8e4;stop-opacity:1;" offset="0.8125"/><stop style="stop-color:#01d9e4;stop-opacity:1;" offset="0.816406"/><stop style="stop-color:#01dae5;stop-opacity:1;" offset="0.820312"/><stop style="stop-color:#01dbe5;stop-opacity:1;" offset="0.824219"/><stop style="stop-color:#01dbe6;stop-opacity:1;" offset="0.828125"/><stop style="stop-color:#01dce6;stop-opacity:1;" offset="0.832031"/><stop style="stop-color:#01dde7;stop-opacity:1;" offset="0.835938"/><stop style="stop-color:#01dee8;stop-opacity:1;" offset="0.839844"/><stop style="stop-color:#01dfe8;stop-opacity:1;" offset="0.84375"/><stop style="stop-color:#01e0e9;stop-opacity:1;" offset="0.847656"/><stop style="stop-color:#01e0e9;stop-opacity:1;" offset="0.851562"/><stop style="stop-color:#01e1ea;stop-opacity:1;" offset="0.855469"/><stop style="stop-color:#01e2ea;stop-opacity:1;" offset="0.859375"/><stop style="stop-color:#01e3eb;stop-opacity:1;" offset="0.863281"/><stop style="stop-color:#01e4ec;stop-opacity:1;" offset="0.867188"/><stop style="stop-color:#01e4ec;stop-opacity:1;" offset="0.871094"/><stop style="stop-color:#01e5ed;stop-opacity:1;" offset="0.875"/><stop style="stop-color:#01e6ed;stop-opacity:1;" offset="0.878906"/><stop style="stop-color:#01e7ee;stop-opacity:1;" offset="0.882812"/><stop style="stop-color:#01e8ef;stop-opacity:1;" offset="0.886719"/><stop style="stop-color:#01e9ef;stop-opacity:1;" offset="0.890625"/><stop style="stop-color:#01e9f0;stop-opacity:1;" offset="0.894531"/><stop style="stop-color:#01eaf0;stop-opacity:1;" offset="0.898438"/><stop style="stop-color:#01ebf1;stop-opacity:1;" offset="0.902344"/><stop style="stop-color:#01ecf1;stop-opacity:1;" offset="0.90625"/><stop style="stop-color:#01edf2;stop-opacity:1;" offset="0.910156"/><stop style="stop-color:#01edf3;stop-opacity:1;" offset="0.914062"/><stop style="stop-color:#01eef3;stop-opacity:1;" offset="0.917969"/><stop style="stop-color:#01eff4;stop-opacity:1;" offset="0.921875"/><stop style="stop-color:#01f0f4;stop-opacity:1;" offset="0.925781"/><stop style="stop-color:#01f1f5;stop-opacity:1;" offset="0.929688"/><stop style="stop-color:#01f2f5;stop-opacity:1;" offset="0.933594"/><stop style="stop-color:#01f2f6;stop-opacity:1;" offset="0.9375"/><stop style="stop-color:#01f3f7;stop-opacity:1;" offset="0.941406"/><stop style="stop-color:#01f4f7;stop-opacity:1;" offset="0.945312"/><stop style="stop-color:#01f5f8;stop-opacity:1;" offset="0.949219"/><stop style="stop-color:#01f6f8;stop-opacity:1;" offset="0.953125"/><stop style="stop-color:#01f6f9;stop-opacity:1;" offset="0.957031"/><stop style="stop-color:#01f7fa;stop-opacity:1;" offset="0.960938"/><stop style="stop-color:#01f8fa;stop-opacity:1;" offset="0.964844"/><stop style="stop-color:#01f9fb;stop-opacity:1;" offset="0.96875"/><stop style="stop-color:#01fafb;stop-opacity:1;" offset="0.972656"/><stop style="stop-color:#01fbfc;stop-opacity:1;" offset="0.976562"/><stop style="stop-color:#01fbfc;stop-opacity:1;" offset="0.980469"/><stop style="stop-color:#01fcfd;stop-opacity:1;" offset="0.984375"/><stop style="stop-color:#01fdfe;stop-opacity:1;" offset="0.988281"/><stop style="stop-color:#01fefe;stop-opacity:1;" offset="0.992188"/><stop style="stop-color:#01ffff;stop-opacity:1;" offset="0.996094"/><stop style="stop-color:#01ffff;stop-opacity:1;" offset="1"/></radialGradient></defs><g id="6ae52c9d08"><g clip-rule="nonzero" clip-path="url(#78ba618667)"><path style=" stroke:none;fill-rule:nonzero;fill:#ffffff;fill-opacity:1;" d="M 0 0 L 37.007812 0 L 37.007812 37.007812 L 0 37.007812 Z M 0 0 "/><path style=" stroke:none;fill-rule:nonzero;fill:#ffffff;fill-opacity:1;" d="M 0 0 L 37.007812 0 L 37.007812 37.007812 L 0 37.007812 Z M 0 0 "/></g><g clip-rule="nonzero" clip-path="url(#a0129c172d)"><g clip-rule="nonzero" clip-path="url(#5ee658dbe8)"><path style=" stroke:none;fill-rule:nonzero;fill:url(#06363cdf95);" d="M 11.667969 11.65625 L 11.667969 24.980469 L 24.96875 24.980469 L 24.96875 11.65625 Z M 11.667969 11.65625 "/></g></g></g></svg>