<svg xmlns="http://www.w3.org/2000/svg" xmlns:xlink="http://www.w3.org/1999/xlink" width="230" zoomAndPan="magnify" viewBox="0 0 172.5 37.92" height="40" preserveAspectRatio="xMidYMid meet" version="1.2"><defs><clipPath id="b259f85c35"><path d="M 0 0.015625 L 172 0.015625 L 172 29.929688 L 0 29.929688 Z M 0 0.015625 "/></clipPath><clipPath id="5ba5cf01e9"><path d="M 3 2.265625 L 28.496094 2.265625 L 28.496094 27.765625 L 3 27.765625 Z M 3 2.265625 "/></clipPath><clipPath id="5b1ca62209"><path d="M 21.402344 11.089844 L 21.390625 11.085938 C 21.386719 11.082031 21.382812 11.082031 21.375 11.078125 C 21.359375 11.0625 21.355469 11.039062 21.359375 11.015625 L 21.871094 7.886719 L 24.269531 10.289062 L 21.773438 11.347656 C 21.765625 11.351562 21.757812 11.351562 21.75 11.351562 L 21.742188 11.351562 C 21.738281 11.351562 21.734375 11.347656 21.730469 11.34375 C 21.636719 11.238281 21.523438 11.152344 21.402344 11.089844 Z M 24.882812 10.898438 L 27.453125 13.464844 C 27.984375 14 28.253906 14.265625 28.351562 14.570312 C 28.363281 14.617188 28.375 14.664062 28.386719 14.710938 L 22.25 12.113281 C 22.246094 12.113281 22.242188 12.113281 22.238281 12.109375 C 22.214844 12.101562 22.1875 12.089844 22.1875 12.0625 C 22.1875 12.039062 22.214844 12.027344 22.238281 12.015625 L 22.246094 12.011719 Z M 28.28125 15.535156 C 28.148438 15.78125 27.890625 16.039062 27.453125 16.476562 L 24.558594 19.371094 L 20.8125 18.589844 L 20.792969 18.585938 C 20.761719 18.582031 20.726562 18.574219 20.726562 18.546875 C 20.695312 18.234375 20.539062 17.949219 20.292969 17.753906 C 20.277344 17.742188 20.28125 17.71875 20.285156 17.695312 C 20.285156 17.691406 20.285156 17.6875 20.285156 17.683594 L 20.992188 13.367188 L 20.992188 13.351562 C 20.996094 13.320312 21.003906 13.28125 21.03125 13.28125 C 21.335938 13.242188 21.613281 13.085938 21.800781 12.839844 C 21.808594 12.835938 21.8125 12.828125 21.820312 12.824219 C 21.839844 12.8125 21.867188 12.824219 21.886719 12.832031 Z M 23.890625 20.035156 L 19.132812 24.789062 L 19.945312 19.785156 L 19.949219 19.78125 C 19.949219 19.773438 19.949219 19.765625 19.953125 19.761719 C 19.957031 19.746094 19.976562 19.738281 19.992188 19.730469 L 20 19.726562 C 20.179688 19.652344 20.335938 19.535156 20.460938 19.386719 C 20.476562 19.367188 20.496094 19.351562 20.519531 19.347656 C 20.527344 19.34375 20.53125 19.34375 20.539062 19.347656 Z M 18.125 25.796875 L 17.585938 26.332031 L 11.652344 17.769531 C 11.652344 17.765625 11.648438 17.761719 11.648438 17.757812 C 11.636719 17.746094 11.628906 17.734375 11.628906 17.71875 C 11.632812 17.707031 11.636719 17.699219 11.644531 17.691406 L 11.652344 17.683594 C 11.667969 17.65625 11.683594 17.628906 11.703125 17.601562 L 11.714844 17.578125 C 11.726562 17.558594 11.734375 17.542969 11.75 17.535156 C 11.765625 17.53125 11.785156 17.53125 11.796875 17.535156 L 18.371094 18.890625 C 18.390625 18.894531 18.40625 18.898438 18.421875 18.910156 C 18.429688 18.921875 18.433594 18.929688 18.433594 18.941406 C 18.527344 19.292969 18.777344 19.578125 19.113281 19.71875 C 19.132812 19.726562 19.125 19.746094 19.117188 19.769531 C 19.113281 19.777344 19.109375 19.789062 19.105469 19.796875 C 19.023438 20.300781 18.3125 24.628906 18.125 25.796875 Z M 17.003906 26.914062 C 16.605469 27.308594 16.375 27.515625 16.109375 27.597656 C 15.851562 27.679688 15.570312 27.679688 15.3125 27.597656 C 15.003906 27.5 14.734375 27.234375 14.203125 26.699219 L 8.246094 20.75 L 9.800781 18.335938 C 9.808594 18.324219 9.816406 18.316406 9.828125 18.308594 C 9.84375 18.292969 9.867188 18.300781 9.886719 18.308594 C 10.246094 18.414062 10.628906 18.394531 10.972656 18.25 C 10.992188 18.246094 11.007812 18.242188 11.023438 18.253906 C 11.027344 18.257812 11.035156 18.265625 11.039062 18.273438 L 17.003906 26.917969 Z M 7.667969 20.175781 L 6.304688 18.808594 L 9.003906 17.660156 C 9.007812 17.65625 9.015625 17.65625 9.023438 17.65625 C 9.046875 17.65625 9.058594 17.675781 9.070312 17.695312 C 9.097656 17.738281 9.128906 17.78125 9.15625 17.820312 L 9.167969 17.828125 C 9.175781 17.839844 9.167969 17.851562 9.160156 17.863281 L 7.671875 20.175781 Z M 5.699219 18.203125 L 3.96875 16.476562 C 3.675781 16.183594 3.460938 15.96875 3.3125 15.789062 L 8.570312 16.878906 C 8.578125 16.878906 8.585938 16.878906 8.589844 16.878906 C 8.625 16.886719 8.660156 16.890625 8.660156 16.921875 C 8.660156 16.953125 8.621094 16.96875 8.585938 16.984375 L 8.570312 16.988281 Z M 3.011719 14.898438 C 3.015625 14.789062 3.039062 14.679688 3.070312 14.570312 C 3.167969 14.265625 3.433594 14 3.96875 13.464844 L 6.183594 11.253906 C 7.199219 12.730469 8.222656 14.207031 9.246094 15.679688 C 9.265625 15.703125 9.285156 15.730469 9.265625 15.75 C 9.167969 15.855469 9.070312 15.972656 9.003906 16.097656 C 8.996094 16.117188 8.984375 16.128906 8.96875 16.140625 C 8.960938 16.144531 8.949219 16.144531 8.941406 16.140625 Z M 6.773438 10.664062 L 9.75 7.691406 C 10.027344 7.8125 11.046875 8.242188 11.957031 8.625 C 12.644531 8.917969 13.273438 9.183594 13.472656 9.269531 C 13.492188 9.277344 13.507812 9.285156 13.519531 9.304688 C 13.523438 9.316406 13.519531 9.332031 13.519531 9.34375 C 13.421875 9.777344 13.550781 10.234375 13.863281 10.554688 C 13.882812 10.574219 13.863281 10.601562 13.847656 10.625 L 13.839844 10.640625 L 10.816406 15.3125 C 10.808594 15.328125 10.800781 15.339844 10.789062 15.347656 C 10.773438 15.355469 10.75 15.351562 10.730469 15.347656 C 10.613281 15.316406 10.492188 15.300781 10.371094 15.296875 C 10.261719 15.296875 10.144531 15.316406 10.027344 15.339844 L 10.023438 15.339844 C 10.011719 15.34375 10 15.34375 9.988281 15.335938 C 9.976562 15.328125 9.96875 15.316406 9.960938 15.304688 Z M 10.351562 7.089844 L 14.203125 3.242188 C 14.734375 2.710938 15.003906 2.441406 15.3125 2.347656 C 15.570312 2.261719 15.851562 2.261719 16.109375 2.347656 C 16.417969 2.441406 16.6875 2.710938 17.21875 3.242188 L 18.054688 4.078125 L 15.316406 8.3125 C 15.308594 8.328125 15.300781 8.335938 15.285156 8.347656 C 15.269531 8.355469 15.246094 8.351562 15.226562 8.347656 C 14.789062 8.214844 14.3125 8.304688 13.957031 8.589844 C 13.9375 8.609375 13.910156 8.597656 13.886719 8.589844 C 13.53125 8.433594 10.75 7.257812 10.351562 7.089844 Z M 18.636719 4.65625 L 21.164062 7.183594 L 20.554688 10.953125 L 20.554688 10.964844 C 20.554688 10.972656 20.554688 10.980469 20.550781 10.988281 C 20.542969 11.003906 20.53125 11.003906 20.515625 11.007812 C 20.386719 11.050781 20.265625 11.109375 20.152344 11.191406 C 20.148438 11.195312 20.144531 11.199219 20.140625 11.203125 C 20.132812 11.210938 20.125 11.21875 20.113281 11.21875 C 20.105469 11.21875 20.09375 11.21875 20.085938 11.214844 L 16.230469 9.578125 L 16.222656 9.574219 C 16.199219 9.5625 16.171875 9.550781 16.171875 9.527344 C 16.148438 9.3125 16.078125 9.105469 15.964844 8.921875 C 15.945312 8.890625 15.925781 8.859375 15.941406 8.828125 Z M 16.03125 10.351562 L 19.644531 11.882812 C 19.664062 11.890625 19.6875 11.898438 19.695312 11.917969 C 19.699219 11.933594 19.699219 11.945312 19.695312 11.957031 C 19.683594 12.011719 19.675781 12.070312 19.675781 12.132812 L 19.675781 12.234375 C 19.675781 12.257812 19.648438 12.269531 19.625 12.277344 L 19.617188 12.28125 C 19.042969 12.523438 11.582031 15.703125 11.570312 15.703125 C 11.558594 15.703125 11.546875 15.703125 11.535156 15.691406 C 11.515625 15.671875 11.535156 15.644531 11.554688 15.621094 C 11.554688 15.617188 11.558594 15.613281 11.5625 15.605469 L 14.53125 11.015625 L 14.539062 11.007812 C 14.554688 10.980469 14.574219 10.949219 14.605469 10.949219 L 14.636719 10.953125 C 14.703125 10.960938 14.765625 10.96875 14.824219 10.96875 C 15.273438 10.96875 15.691406 10.75 15.941406 10.375 C 15.949219 10.367188 15.957031 10.359375 15.964844 10.351562 C 15.984375 10.335938 16.007812 10.34375 16.03125 10.351562 Z M 11.894531 16.429688 L 20.027344 12.964844 C 20.027344 12.964844 20.039062 12.964844 20.050781 12.976562 C 20.09375 13.019531 20.132812 13.050781 20.167969 13.078125 L 20.1875 13.089844 C 20.203125 13.097656 20.222656 13.109375 20.222656 13.125 C 20.222656 13.132812 20.222656 13.136719 20.222656 13.144531 L 19.523438 17.417969 L 19.519531 17.4375 C 19.515625 17.46875 19.511719 17.507812 19.480469 17.507812 C 19.105469 17.53125 18.761719 17.742188 18.570312 18.066406 L 18.566406 18.074219 C 18.558594 18.089844 18.550781 18.105469 18.535156 18.113281 C 18.519531 18.117188 18.503906 18.117188 18.488281 18.113281 L 12 16.777344 C 11.992188 16.773438 11.898438 16.429688 11.894531 16.429688 Z M 11.894531 16.429688 "/></clipPath><radialGradient gradientTransform="matrix(0.999995,0,0,1.000005,3.011148,2.28419)" id="c6bff77334" gradientUnits="userSpaceOnUse" r="25.374607" cx="12.687304" fx="12.687304" cy="-12.687304" fy="-12.687304"><stop style="stop-color:#002e6b;stop-opacity:1;" offset="0"/><stop style="stop-color:#002f6c;stop-opacity:1;" offset="0.00390625"/><stop style="stop-color:#00306d;stop-opacity:1;" offset="0.0078125"/><stop style="stop-color:#00316d;stop-opacity:1;" offset="0.0117188"/><stop style="stop-color:#00326e;stop-opacity:1;" offset="0.015625"/><stop style="stop-color:#00326e;stop-opacity:1;" offset="0.0195312"/><stop style="stop-color:#00336f;stop-opacity:1;" offset="0.0234375"/><stop style="stop-color:#00346f;stop-opacity:1;" offset="0.0273438"/><stop style="stop-color:#003570;stop-opacity:1;" offset="0.03125"/><stop style="stop-color:#003671;stop-opacity:1;" offset="0.0351562"/><stop style="stop-color:#003671;stop-opacity:1;" offset="0.0390625"/><stop style="stop-color:#003772;stop-opacity:1;" offset="0.0429688"/><stop style="stop-color:#003872;stop-opacity:1;" offset="0.046875"/><stop style="stop-color:#003973;stop-opacity:1;" offset="0.0507812"/><stop style="stop-color:#003a73;stop-opacity:1;" offset="0.0546875"/><stop style="stop-color:#003b74;stop-opacity:1;" offset="0.0585938"/><stop style="stop-color:#003b75;stop-opacity:1;" offset="0.0625"/><stop style="stop-color:#003c75;stop-opacity:1;" offset="0.0664062"/><stop style="stop-color:#003d76;stop-opacity:1;" offset="0.0703125"/><stop style="stop-color:#003e76;stop-opacity:1;" offset="0.0742188"/><stop style="stop-color:#003f77;stop-opacity:1;" offset="0.078125"/><stop style="stop-color:#003f78;stop-opacity:1;" offset="0.0820312"/><stop style="stop-color:#004078;stop-opacity:1;" offset="0.0859375"/><stop style="stop-color:#004179;stop-opacity:1;" offset="0.0898438"/><stop style="stop-color:#004279;stop-opacity:1;" offset="0.09375"/><stop style="stop-color:#00437a;stop-opacity:1;" offset="0.0976562"/><stop style="stop-color:#00447a;stop-opacity:1;" offset="0.101562"/><stop style="stop-color:#00447b;stop-opacity:1;" offset="0.105469"/><stop style="stop-color:#00457c;stop-opacity:1;" offset="0.109375"/><stop style="stop-color:#00467c;stop-opacity:1;" offset="0.113281"/><stop style="stop-color:#00477d;stop-opacity:1;" offset="0.117188"/><stop style="stop-color:#00487d;stop-opacity:1;" offset="0.121094"/><stop style="stop-color:#00487e;stop-opacity:1;" offset="0.125"/><stop style="stop-color:#00497e;stop-opacity:1;" offset="0.128906"/><stop style="stop-color:#004a7f;stop-opacity:1;" offset="0.132812"/><stop style="stop-color:#004b80;stop-opacity:1;" offset="0.136719"/><stop style="stop-color:#004c80;stop-opacity:1;" offset="0.140625"/><stop style="stop-color:#004d81;stop-opacity:1;" offset="0.144531"/><stop style="stop-color:#004d81;stop-opacity:1;" offset="0.148438"/><stop style="stop-color:#004e82;stop-opacity:1;" offset="0.152344"/><stop style="stop-color:#004f82;stop-opacity:1;" offset="0.15625"/><stop style="stop-color:#005083;stop-opacity:1;" offset="0.160156"/><stop style="stop-color:#005184;stop-opacity:1;" offset="0.164062"/><stop style="stop-color:#005184;stop-opacity:1;" offset="0.167969"/><stop style="stop-color:#005285;stop-opacity:1;" offset="0.171875"/><stop style="stop-color:#005385;stop-opacity:1;" offset="0.175781"/><stop style="stop-color:#005486;stop-opacity:1;" offset="0.179688"/><stop style="stop-color:#005587;stop-opacity:1;" offset="0.183594"/><stop style="stop-color:#005687;stop-opacity:1;" offset="0.1875"/><stop style="stop-color:#005688;stop-opacity:1;" offset="0.191406"/><stop style="stop-color:#005788;stop-opacity:1;" offset="0.195312"/><stop style="stop-color:#005889;stop-opacity:1;" offset="0.199219"/><stop style="stop-color:#005989;stop-opacity:1;" offset="0.203125"/><stop style="stop-color:#005a8a;stop-opacity:1;" offset="0.207031"/><stop style="stop-color:#005a8b;stop-opacity:1;" offset="0.210938"/><stop style="stop-color:#005b8b;stop-opacity:1;" offset="0.214844"/><stop style="stop-color:#005c8c;stop-opacity:1;" offset="0.21875"/><stop style="stop-color:#005d8c;stop-opacity:1;" offset="0.222656"/><stop style="stop-color:#005e8d;stop-opacity:1;" offset="0.226562"/><stop style="stop-color:#005e8d;stop-opacity:1;" offset="0.230469"/><stop style="stop-color:#005f8e;stop-opacity:1;" offset="0.234375"/><stop style="stop-color:#00608f;stop-opacity:1;" offset="0.238281"/><stop style="stop-color:#00618f;stop-opacity:1;" offset="0.242188"/><stop style="stop-color:#006290;stop-opacity:1;" offset="0.246094"/><stop style="stop-color:#006390;stop-opacity:1;" offset="0.25"/><stop style="stop-color:#006391;stop-opacity:1;" offset="0.253906"/><stop style="stop-color:#006492;stop-opacity:1;" offset="0.257812"/><stop style="stop-color:#006592;stop-opacity:1;" offset="0.261719"/><stop style="stop-color:#006693;stop-opacity:1;" offset="0.265625"/><stop style="stop-color:#006793;stop-opacity:1;" offset="0.269531"/><stop style="stop-color:#006794;stop-opacity:1;" offset="0.273438"/><stop style="stop-color:#006894;stop-opacity:1;" offset="0.277344"/><stop style="stop-color:#006995;stop-opacity:1;" offset="0.28125"/><stop style="stop-color:#006a96;stop-opacity:1;" offset="0.285156"/><stop style="stop-color:#006b96;stop-opacity:1;" offset="0.289062"/><stop style="stop-color:#006c97;stop-opacity:1;" offset="0.292969"/><stop style="stop-color:#006c97;stop-opacity:1;" offset="0.296875"/><stop style="stop-color:#006d98;stop-opacity:1;" offset="0.300781"/><stop style="stop-color:#006e98;stop-opacity:1;" offset="0.304688"/><stop style="stop-color:#006f99;stop-opacity:1;" offset="0.308594"/><stop style="stop-color:#00709a;stop-opacity:1;" offset="0.3125"/><stop style="stop-color:#00709a;stop-opacity:1;" offset="0.316406"/><stop style="stop-color:#00719b;stop-opacity:1;" offset="0.320312"/><stop style="stop-color:#00729b;stop-opacity:1;" offset="0.324219"/><stop style="stop-color:#00739c;stop-opacity:1;" offset="0.328125"/><stop style="stop-color:#00749c;stop-opacity:1;" offset="0.332031"/><stop style="stop-color:#00759d;stop-opacity:1;" offset="0.335938"/><stop style="stop-color:#00759e;stop-opacity:1;" offset="0.339844"/><stop style="stop-color:#00769e;stop-opacity:1;" offset="0.34375"/><stop style="stop-color:#00779f;stop-opacity:1;" offset="0.347656"/><stop style="stop-color:#00789f;stop-opacity:1;" offset="0.351562"/><stop style="stop-color:#0079a0;stop-opacity:1;" offset="0.355469"/><stop style="stop-color:#0079a1;stop-opacity:1;" offset="0.359375"/><stop style="stop-color:#007aa1;stop-opacity:1;" offset="0.363281"/><stop style="stop-color:#007ba2;stop-opacity:1;" offset="0.367188"/><stop style="stop-color:#007ca2;stop-opacity:1;" offset="0.371094"/><stop style="stop-color:#007da3;stop-opacity:1;" offset="0.375"/><stop style="stop-color:#007ea3;stop-opacity:1;" offset="0.378906"/><stop style="stop-color:#007ea4;stop-opacity:1;" offset="0.382812"/><stop style="stop-color:#007fa5;stop-opacity:1;" offset="0.386719"/><stop style="stop-color:#0080a5;stop-opacity:1;" offset="0.390625"/><stop style="stop-color:#0081a6;stop-opacity:1;" offset="0.394531"/><stop style="stop-color:#0082a6;stop-opacity:1;" offset="0.398438"/><stop style="stop-color:#0082a7;stop-opacity:1;" offset="0.402344"/><stop style="stop-color:#0083a7;stop-opacity:1;" offset="0.40625"/><stop style="stop-color:#0084a8;stop-opacity:1;" offset="0.410156"/><stop style="stop-color:#0085a9;stop-opacity:1;" offset="0.414062"/><stop style="stop-color:#0086a9;stop-opacity:1;" offset="0.417969"/><stop style="stop-color:#0087aa;stop-opacity:1;" offset="0.421875"/><stop style="stop-color:#0087aa;stop-opacity:1;" offset="0.425781"/><stop style="stop-color:#0088ab;stop-opacity:1;" offset="0.429688"/><stop style="stop-color:#0089ac;stop-opacity:1;" offset="0.433594"/><stop style="stop-color:#008aac;stop-opacity:1;" offset="0.4375"/><stop style="stop-color:#008bad;stop-opacity:1;" offset="0.441406"/><stop style="stop-color:#008bad;stop-opacity:1;" offset="0.445312"/><stop style="stop-color:#008cae;stop-opacity:1;" offset="0.449219"/><stop style="stop-color:#008dae;stop-opacity:1;" offset="0.453125"/><stop style="stop-color:#008eaf;stop-opacity:1;" offset="0.457031"/><stop style="stop-color:#008fb0;stop-opacity:1;" offset="0.460938"/><stop style="stop-color:#0090b0;stop-opacity:1;" offset="0.464844"/><stop style="stop-color:#0090b1;stop-opacity:1;" offset="0.46875"/><stop style="stop-color:#0091b1;stop-opacity:1;" offset="0.472656"/><stop style="stop-color:#0092b2;stop-opacity:1;" offset="0.476562"/><stop style="stop-color:#0093b2;stop-opacity:1;" offset="0.480469"/><stop style="stop-color:#0094b3;stop-opacity:1;" offset="0.484375"/><stop style="stop-color:#0094b4;stop-opacity:1;" offset="0.488281"/><stop style="stop-color:#0195b4;stop-opacity:1;" offset="0.492188"/><stop style="stop-color:#0196b5;stop-opacity:1;" offset="0.496094"/><stop style="stop-color:#0197b5;stop-opacity:1;" offset="0.5"/><stop style="stop-color:#0198b6;stop-opacity:1;" offset="0.503906"/><stop style="stop-color:#0198b6;stop-opacity:1;" offset="0.507812"/><stop style="stop-color:#0199b7;stop-opacity:1;" offset="0.511719"/><stop style="stop-color:#019ab8;stop-opacity:1;" offset="0.515625"/><stop style="stop-color:#019bb8;stop-opacity:1;" offset="0.519531"/><stop style="stop-color:#019cb9;stop-opacity:1;" offset="0.523438"/><stop style="stop-color:#019db9;stop-opacity:1;" offset="0.527344"/><stop style="stop-color:#019dba;stop-opacity:1;" offset="0.53125"/><stop style="stop-color:#019ebb;stop-opacity:1;" offset="0.535156"/><stop style="stop-color:#019fbb;stop-opacity:1;" offset="0.539062"/><stop style="stop-color:#01a0bc;stop-opacity:1;" offset="0.542969"/><stop style="stop-color:#01a1bc;stop-opacity:1;" offset="0.546875"/><stop style="stop-color:#01a1bd;stop-opacity:1;" offset="0.550781"/><stop style="stop-color:#01a2bd;stop-opacity:1;" offset="0.554688"/><stop style="stop-color:#01a3be;stop-opacity:1;" offset="0.558594"/><stop style="stop-color:#01a4bf;stop-opacity:1;" offset="0.5625"/><stop style="stop-color:#01a5bf;stop-opacity:1;" offset="0.566406"/><stop style="stop-color:#01a6c0;stop-opacity:1;" offset="0.570312"/><stop style="stop-color:#01a6c0;stop-opacity:1;" offset="0.574219"/><stop style="stop-color:#01a7c1;stop-opacity:1;" offset="0.578125"/><stop style="stop-color:#01a8c1;stop-opacity:1;" offset="0.582031"/><stop style="stop-color:#01a9c2;stop-opacity:1;" offset="0.585938"/><stop style="stop-color:#01aac3;stop-opacity:1;" offset="0.589844"/><stop style="stop-color:#01aac3;stop-opacity:1;" offset="0.59375"/><stop style="stop-color:#01abc4;stop-opacity:1;" offset="0.597656"/><stop style="stop-color:#01acc4;stop-opacity:1;" offset="0.601562"/><stop style="stop-color:#01adc5;stop-opacity:1;" offset="0.605469"/><stop style="stop-color:#01aec6;stop-opacity:1;" offset="0.609375"/><stop style="stop-color:#01afc6;stop-opacity:1;" offset="0.613281"/><stop style="stop-color:#01afc7;stop-opacity:1;" offset="0.617188"/><stop style="stop-color:#01b0c7;stop-opacity:1;" offset="0.621094"/><stop style="stop-color:#01b1c8;stop-opacity:1;" offset="0.625"/><stop style="stop-color:#01b2c8;stop-opacity:1;" offset="0.628906"/><stop style="stop-color:#01b3c9;stop-opacity:1;" offset="0.632812"/><stop style="stop-color:#01b3ca;stop-opacity:1;" offset="0.636719"/><stop style="stop-color:#01b4ca;stop-opacity:1;" offset="0.640625"/><stop style="stop-color:#01b5cb;stop-opacity:1;" offset="0.644531"/><stop style="stop-color:#01b6cb;stop-opacity:1;" offset="0.648438"/><stop style="stop-color:#01b7cc;stop-opacity:1;" offset="0.652344"/><stop style="stop-color:#01b8cc;stop-opacity:1;" offset="0.65625"/><stop style="stop-color:#01b8cd;stop-opacity:1;" offset="0.660156"/><stop style="stop-color:#01b9ce;stop-opacity:1;" offset="0.664062"/><stop style="stop-color:#01bace;stop-opacity:1;" offset="0.667969"/><stop style="stop-color:#01bbcf;stop-opacity:1;" offset="0.671875"/><stop style="stop-color:#01bccf;stop-opacity:1;" offset="0.675781"/><stop style="stop-color:#01bcd0;stop-opacity:1;" offset="0.679688"/><stop style="stop-color:#01bdd0;stop-opacity:1;" offset="0.683594"/><stop style="stop-color:#01bed1;stop-opacity:1;" offset="0.6875"/><stop style="stop-color:#01bfd2;stop-opacity:1;" offset="0.691406"/><stop style="stop-color:#01c0d2;stop-opacity:1;" offset="0.695312"/><stop style="stop-color:#01c1d3;stop-opacity:1;" offset="0.699219"/><stop style="stop-color:#01c1d3;stop-opacity:1;" offset="0.703125"/><stop style="stop-color:#01c2d4;stop-opacity:1;" offset="0.707031"/><stop style="stop-color:#01c3d5;stop-opacity:1;" offset="0.710938"/><stop style="stop-color:#01c4d5;stop-opacity:1;" offset="0.714844"/><stop style="stop-color:#01c5d6;stop-opacity:1;" offset="0.71875"/><stop style="stop-color:#01c5d6;stop-opacity:1;" offset="0.722656"/><stop style="stop-color:#01c6d7;stop-opacity:1;" offset="0.726562"/><stop style="stop-color:#01c7d7;stop-opacity:1;" offset="0.730469"/><stop style="stop-color:#01c8d8;stop-opacity:1;" offset="0.734375"/><stop style="stop-color:#01c9d9;stop-opacity:1;" offset="0.738281"/><stop style="stop-color:#01c9d9;stop-opacity:1;" offset="0.742188"/><stop style="stop-color:#01cada;stop-opacity:1;" offset="0.746094"/><stop style="stop-color:#01cbda;stop-opacity:1;" offset="0.75"/><stop style="stop-color:#01ccdb;stop-opacity:1;" offset="0.753906"/><stop style="stop-color:#01cddb;stop-opacity:1;" offset="0.757812"/><stop style="stop-color:#01cedc;stop-opacity:1;" offset="0.761719"/><stop style="stop-color:#01cedd;stop-opacity:1;" offset="0.765625"/><stop style="stop-color:#01cfdd;stop-opacity:1;" offset="0.769531"/><stop style="stop-color:#01d0de;stop-opacity:1;" offset="0.773438"/><stop style="stop-color:#01d1de;stop-opacity:1;" offset="0.777344"/><stop style="stop-color:#01d2df;stop-opacity:1;" offset="0.78125"/><stop style="stop-color:#01d2e0;stop-opacity:1;" offset="0.785156"/><stop style="stop-color:#01d3e0;stop-opacity:1;" offset="0.789062"/><stop style="stop-color:#01d4e1;stop-opacity:1;" offset="0.792969"/><stop style="stop-color:#01d5e1;stop-opacity:1;" offset="0.796875"/><stop style="stop-color:#01d6e2;stop-opacity:1;" offset="0.800781"/><stop style="stop-color:#01d7e2;stop-opacity:1;" offset="0.804688"/><stop style="stop-color:#01d7e3;stop-opacity:1;" offset="0.808594"/><stop style="stop-color:#01d8e4;stop-opacity:1;" offset="0.8125"/><stop style="stop-color:#01d9e4;stop-opacity:1;" offset="0.816406"/><stop style="stop-color:#01dae5;stop-opacity:1;" offset="0.820312"/><stop style="stop-color:#01dbe5;stop-opacity:1;" offset="0.824219"/><stop style="stop-color:#01dbe6;stop-opacity:1;" offset="0.828125"/><stop style="stop-color:#01dce6;stop-opacity:1;" offset="0.832031"/><stop style="stop-color:#01dde7;stop-opacity:1;" offset="0.835938"/><stop style="stop-color:#01dee8;stop-opacity:1;" offset="0.839844"/><stop style="stop-color:#01dfe8;stop-opacity:1;" offset="0.84375"/><stop style="stop-color:#01e0e9;stop-opacity:1;" offset="0.847656"/><stop style="stop-color:#01e0e9;stop-opacity:1;" offset="0.851562"/><stop style="stop-color:#01e1ea;stop-opacity:1;" offset="0.855469"/><stop style="stop-color:#01e2ea;stop-opacity:1;" offset="0.859375"/><stop style="stop-color:#01e3eb;stop-opacity:1;" offset="0.863281"/><stop style="stop-color:#01e4ec;stop-opacity:1;" offset="0.867188"/><stop style="stop-color:#01e4ec;stop-opacity:1;" offset="0.871094"/><stop style="stop-color:#01e5ed;stop-opacity:1;" offset="0.875"/><stop style="stop-color:#01e6ed;stop-opacity:1;" offset="0.878906"/><stop style="stop-color:#01e7ee;stop-opacity:1;" offset="0.882812"/><stop style="stop-color:#01e8ef;stop-opacity:1;" offset="0.886719"/><stop style="stop-color:#01e9ef;stop-opacity:1;" offset="0.890625"/><stop style="stop-color:#01e9f0;stop-opacity:1;" offset="0.894531"/><stop style="stop-color:#01eaf0;stop-opacity:1;" offset="0.898438"/><stop style="stop-color:#01ebf1;stop-opacity:1;" offset="0.902344"/><stop style="stop-color:#01ecf1;stop-opacity:1;" offset="0.90625"/><stop style="stop-color:#01edf2;stop-opacity:1;" offset="0.910156"/><stop style="stop-color:#01edf3;stop-opacity:1;" offset="0.914062"/><stop style="stop-color:#01eef3;stop-opacity:1;" offset="0.917969"/><stop style="stop-color:#01eff4;stop-opacity:1;" offset="0.921875"/><stop style="stop-color:#01f0f4;stop-opacity:1;" offset="0.925781"/><stop style="stop-color:#01f1f5;stop-opacity:1;" offset="0.929688"/><stop style="stop-color:#01f2f5;stop-opacity:1;" offset="0.933594"/><stop style="stop-color:#01f2f6;stop-opacity:1;" offset="0.9375"/><stop style="stop-color:#01f3f7;stop-opacity:1;" offset="0.941406"/><stop style="stop-color:#01f4f7;stop-opacity:1;" offset="0.945312"/><stop style="stop-color:#01f5f8;stop-opacity:1;" offset="0.949219"/><stop style="stop-color:#01f6f8;stop-opacity:1;" offset="0.953125"/><stop style="stop-color:#01f6f9;stop-opacity:1;" offset="0.957031"/><stop style="stop-color:#01f7fa;stop-opacity:1;" offset="0.960938"/><stop style="stop-color:#01f8fa;stop-opacity:1;" offset="0.964844"/><stop style="stop-color:#01f9fb;stop-opacity:1;" offset="0.96875"/><stop style="stop-color:#01fafb;stop-opacity:1;" offset="0.972656"/><stop style="stop-color:#01fbfc;stop-opacity:1;" offset="0.976562"/><stop style="stop-color:#01fbfc;stop-opacity:1;" offset="0.980469"/><stop style="stop-color:#01fcfd;stop-opacity:1;" offset="0.984375"/><stop style="stop-color:#01fdfe;stop-opacity:1;" offset="0.988281"/><stop style="stop-color:#01fefe;stop-opacity:1;" offset="0.992188"/><stop style="stop-color:#01ffff;stop-opacity:1;" offset="0.996094"/><stop style="stop-color:#01ffff;stop-opacity:1;" offset="1"/></radialGradient></defs><g id="85e124cde4"><g clip-rule="nonzero" clip-path="url(#b259f85c35)"><path style=" stroke:none;fill-rule:nonzero;fill:#ffffff;fill-opacity:1;" d="M 0 0.015625 L 172 0.015625 L 172 29.929688 L 0 29.929688 Z M 0 0.015625 "/><path style=" stroke:none;fill-rule:nonzero;fill:#ffffff;fill-opacity:1;" d="M 0 0.015625 L 172 0.015625 L 172 29.929688 L 0 29.929688 Z M 0 0.015625 "/></g><g style="fill:#002e6b;fill-opacity:1;"><g transform="translate(31.206423, 17.396854)"><path style="stroke:none" d="M 7.484375 -5.515625 C 7.484375 -4.898438 7.320312 -4.429688 7 -4.109375 C 7.363281 -3.785156 7.546875 -3.304688 7.546875 -2.671875 L 7.546875 -2.015625 C 7.546875 -1.867188 7.535156 -1.722656 7.515625 -1.578125 C 7.503906 -1.441406 7.488281 -1.3125 7.46875 -1.1875 C 7.4375 -1.070312 7.398438 -0.957031 7.359375 -0.84375 C 7.316406 -0.738281 7.265625 -0.640625 7.203125 -0.546875 C 7.085938 -0.378906 6.925781 -0.242188 6.71875 -0.140625 C 6.519531 -0.0351562 6.273438 0.015625 5.984375 0.015625 L 1.625 0.015625 C 1.46875 0.015625 1.320312 -0.0195312 1.1875 -0.09375 C 1.0625 -0.175781 0.960938 -0.28125 0.890625 -0.40625 C 0.835938 -0.5 0.800781 -0.597656 0.78125 -0.703125 L 0.78125 -7.328125 C 0.800781 -7.367188 0.816406 -7.410156 0.828125 -7.453125 C 0.847656 -7.492188 0.867188 -7.535156 0.890625 -7.578125 C 1.035156 -7.828125 1.253906 -7.960938 1.546875 -7.984375 L 1.546875 -8 L 5.84375 -8 C 6.4375 -8 6.859375 -7.832031 7.109375 -7.5 C 7.359375 -7.1875 7.484375 -6.707031 7.484375 -6.0625 Z M 2.203125 -1.484375 C 2.203125 -1.460938 2.203125 -1.445312 2.203125 -1.4375 C 2.210938 -1.4375 2.21875 -1.4375 2.21875 -1.4375 L 5.59375 -1.4375 C 5.78125 -1.4375 5.914062 -1.476562 6 -1.5625 C 6.070312 -1.65625 6.109375 -1.8125 6.109375 -2.03125 L 6.109375 -2.6875 C 6.109375 -2.894531 6.066406 -3.050781 5.984375 -3.15625 C 5.890625 -3.257812 5.722656 -3.3125 5.484375 -3.3125 L 3.59375 -3.3125 C 3.507812 -3.3125 3.4375 -3.34375 3.375 -3.40625 C 3.3125 -3.46875 3.28125 -3.539062 3.28125 -3.625 L 3.28125 -4.421875 C 3.28125 -4.515625 3.3125 -4.59375 3.375 -4.65625 C 3.4375 -4.71875 3.507812 -4.75 3.59375 -4.75 L 5.484375 -4.75 C 5.734375 -4.75 5.898438 -4.789062 5.984375 -4.875 C 6.066406 -4.96875 6.109375 -5.113281 6.109375 -5.3125 L 6.109375 -5.984375 C 6.109375 -6.191406 6.066406 -6.335938 5.984375 -6.421875 C 5.910156 -6.515625 5.78125 -6.5625 5.59375 -6.5625 L 2.21875 -6.5625 C 2.207031 -6.5625 2.203125 -6.539062 2.203125 -6.5 Z M 2.203125 -1.484375 "/></g></g><g style="fill:#002e6b;fill-opacity:1;"><g transform="translate(40.005374, 17.396854)"><path style="stroke:none" d="M 7.484375 -8 C 7.523438 -8 7.578125 -7.976562 7.640625 -7.9375 C 7.710938 -7.90625 7.75 -7.816406 7.75 -7.671875 L 7.75 -3.03125 C 7.75 -2.757812 7.738281 -2.507812 7.71875 -2.28125 C 7.695312 -2.050781 7.664062 -1.84375 7.625 -1.65625 C 7.53125 -1.25 7.390625 -0.929688 7.203125 -0.703125 C 7.015625 -0.453125 6.765625 -0.269531 6.453125 -0.15625 C 6.160156 -0.0507812 5.796875 0 5.359375 0 L 3.171875 0 C 2.734375 0 2.367188 -0.0507812 2.078125 -0.15625 C 1.929688 -0.21875 1.789062 -0.289062 1.65625 -0.375 C 1.53125 -0.46875 1.421875 -0.578125 1.328125 -0.703125 C 1.128906 -0.941406 0.988281 -1.257812 0.90625 -1.65625 C 0.851562 -1.84375 0.816406 -2.050781 0.796875 -2.28125 C 0.785156 -2.507812 0.78125 -2.757812 0.78125 -3.03125 L 0.78125 -7.671875 C 0.78125 -7.816406 0.8125 -7.90625 0.875 -7.9375 C 0.945312 -7.976562 1.007812 -8 1.0625 -8 L 1.9375 -8 C 1.988281 -8 2.046875 -7.976562 2.109375 -7.9375 C 2.179688 -7.90625 2.21875 -7.816406 2.21875 -7.671875 L 2.21875 -2.875 C 2.21875 -2.738281 2.21875 -2.609375 2.21875 -2.484375 C 2.226562 -2.359375 2.242188 -2.25 2.265625 -2.15625 C 2.296875 -1.976562 2.347656 -1.832031 2.421875 -1.71875 C 2.503906 -1.625 2.601562 -1.550781 2.71875 -1.5 C 2.78125 -1.476562 2.851562 -1.460938 2.9375 -1.453125 C 3.019531 -1.441406 3.113281 -1.4375 3.21875 -1.4375 L 5.3125 -1.4375 C 5.414062 -1.4375 5.507812 -1.441406 5.59375 -1.453125 C 5.675781 -1.460938 5.753906 -1.476562 5.828125 -1.5 C 5.941406 -1.550781 6.035156 -1.625 6.109375 -1.71875 C 6.140625 -1.769531 6.171875 -1.832031 6.203125 -1.90625 C 6.234375 -1.976562 6.253906 -2.0625 6.265625 -2.15625 C 6.273438 -2.25 6.285156 -2.359375 6.296875 -2.484375 C 6.304688 -2.609375 6.3125 -2.738281 6.3125 -2.875 L 6.3125 -7.671875 C 6.3125 -7.816406 6.34375 -7.90625 6.40625 -7.9375 C 6.476562 -7.976562 6.539062 -8 6.59375 -8 Z M 7.484375 -8 "/></g></g><g style="fill:#002e6b;fill-opacity:1;"><g transform="translate(49.017753, 17.396854)"><path style="stroke:none" d="M 7.34375 -8 C 7.382812 -8 7.4375 -7.976562 7.5 -7.9375 C 7.570312 -7.894531 7.609375 -7.800781 7.609375 -7.65625 L 7.609375 -6.90625 C 7.609375 -6.75 7.570312 -6.648438 7.5 -6.609375 C 7.4375 -6.578125 7.382812 -6.5625 7.34375 -6.5625 L 3.21875 -6.5625 C 3.113281 -6.5625 3.019531 -6.550781 2.9375 -6.53125 C 2.851562 -6.519531 2.78125 -6.503906 2.71875 -6.484375 C 2.601562 -6.441406 2.503906 -6.375 2.421875 -6.28125 C 2.347656 -6.164062 2.296875 -6.019531 2.265625 -5.84375 C 2.234375 -5.65625 2.21875 -5.414062 2.21875 -5.125 L 2.21875 -2.875 C 2.21875 -2.582031 2.234375 -2.335938 2.265625 -2.140625 C 2.296875 -1.960938 2.347656 -1.820312 2.421875 -1.71875 C 2.503906 -1.613281 2.601562 -1.539062 2.71875 -1.5 C 2.832031 -1.457031 3 -1.4375 3.21875 -1.4375 L 5.9375 -1.4375 C 6.050781 -1.4375 6.128906 -1.472656 6.171875 -1.546875 C 6.191406 -1.578125 6.210938 -1.628906 6.234375 -1.703125 C 6.253906 -1.773438 6.265625 -1.882812 6.265625 -2.03125 C 6.265625 -2.03125 6.265625 -2.070312 6.265625 -2.15625 C 6.265625 -2.25 6.265625 -2.363281 6.265625 -2.5 C 6.265625 -2.632812 6.257812 -2.769531 6.25 -2.90625 C 6.25 -3.039062 6.25 -3.15625 6.25 -3.25 C 6.25 -3.34375 6.25 -3.390625 6.25 -3.390625 L 3.828125 -3.390625 C 3.796875 -3.390625 3.742188 -3.40625 3.671875 -3.4375 C 3.597656 -3.476562 3.5625 -3.578125 3.5625 -3.734375 L 3.5625 -4.46875 C 3.5625 -4.625 3.597656 -4.722656 3.671875 -4.765625 C 3.742188 -4.804688 3.796875 -4.828125 3.828125 -4.828125 L 7.265625 -4.828125 C 7.328125 -4.828125 7.398438 -4.800781 7.484375 -4.75 C 7.566406 -4.695312 7.609375 -4.578125 7.609375 -4.390625 L 7.609375 -1.796875 C 7.609375 -1.148438 7.515625 -0.691406 7.328125 -0.421875 C 7.128906 -0.128906 6.847656 0.015625 6.484375 0.015625 L 3.171875 0.015625 C 2.753906 0.015625 2.390625 -0.0390625 2.078125 -0.15625 C 1.773438 -0.257812 1.523438 -0.4375 1.328125 -0.6875 C 1.128906 -0.945312 0.988281 -1.265625 0.90625 -1.640625 C 0.851562 -1.835938 0.816406 -2.050781 0.796875 -2.28125 C 0.785156 -2.507812 0.78125 -2.757812 0.78125 -3.03125 L 0.78125 -4.953125 C 0.78125 -5.222656 0.785156 -5.472656 0.796875 -5.703125 C 0.816406 -5.941406 0.851562 -6.15625 0.90625 -6.34375 C 0.945312 -6.53125 1.003906 -6.703125 1.078125 -6.859375 C 1.148438 -7.023438 1.234375 -7.164062 1.328125 -7.28125 C 1.503906 -7.519531 1.753906 -7.703125 2.078125 -7.828125 C 2.390625 -7.941406 2.753906 -8 3.171875 -8 Z M 7.34375 -8 "/></g></g><g style="fill:#002e6b;fill-opacity:1;"><g transform="translate(57.894315, 17.396854)"><path style="stroke:none" d="M 5.984375 -7.09375 L 8.703125 -0.375 C 8.742188 -0.28125 8.753906 -0.203125 8.734375 -0.140625 C 8.722656 -0.109375 8.703125 -0.0703125 8.671875 -0.03125 C 8.648438 0 8.597656 0.015625 8.515625 0.015625 L 7.484375 0.015625 C 7.347656 0.015625 7.253906 -0.0546875 7.203125 -0.203125 L 4.796875 -6.203125 C 4.785156 -6.222656 4.78125 -6.234375 4.78125 -6.234375 L 4.75 -6.234375 C 4.75 -6.234375 4.742188 -6.226562 4.734375 -6.21875 C 4.734375 -6.21875 4.726562 -6.210938 4.71875 -6.203125 L 3.484375 -3.0625 L 4.6875 -3.0625 C 4.820312 -3.0625 4.914062 -2.992188 4.96875 -2.859375 L 5.3125 -2 C 5.34375 -1.882812 5.332031 -1.789062 5.28125 -1.71875 C 5.226562 -1.625 5.144531 -1.578125 5.03125 -1.578125 L 2.90625 -1.578125 L 2.34375 -0.1875 C 2.289062 -0.0507812 2.203125 0.015625 2.078125 0.015625 L 1.015625 0.015625 C 0.929688 0.015625 0.875 0 0.84375 -0.03125 C 0.820312 -0.0703125 0.804688 -0.109375 0.796875 -0.140625 C 0.773438 -0.191406 0.78125 -0.269531 0.8125 -0.375 L 3.515625 -7.09375 C 3.648438 -7.4375 3.796875 -7.671875 3.953125 -7.796875 C 3.972656 -7.816406 3.992188 -7.832031 4.015625 -7.84375 C 4.046875 -7.863281 4.070312 -7.878906 4.09375 -7.890625 C 4.289062 -8.035156 4.515625 -8.109375 4.765625 -8.109375 C 5.023438 -8.109375 5.257812 -8.023438 5.46875 -7.859375 C 5.6875 -7.691406 5.835938 -7.484375 5.921875 -7.234375 C 5.929688 -7.210938 5.941406 -7.1875 5.953125 -7.15625 C 5.960938 -7.132812 5.972656 -7.113281 5.984375 -7.09375 Z M 5.984375 -7.09375 "/></g></g><g style="fill:#002e6b;fill-opacity:1;"><g transform="translate(67.905913, 17.396854)"><path style="stroke:none" d=""/></g></g><g style="fill:#002e6b;fill-opacity:1;"><g transform="translate(73.377363, 17.396854)"><path style="stroke:none" d="M 7.484375 -8 C 7.523438 -8 7.582031 -7.976562 7.65625 -7.9375 C 7.726562 -7.90625 7.765625 -7.816406 7.765625 -7.671875 L 7.765625 -6.90625 C 7.765625 -6.75 7.726562 -6.648438 7.65625 -6.609375 C 7.582031 -6.578125 7.523438 -6.5625 7.484375 -6.5625 L 4.984375 -6.5625 L 4.984375 -0.328125 C 4.984375 -0.179688 4.945312 -0.0859375 4.875 -0.046875 C 4.8125 -0.015625 4.757812 0 4.71875 0 L 3.828125 0 C 3.785156 0 3.726562 -0.015625 3.65625 -0.046875 C 3.582031 -0.0859375 3.546875 -0.179688 3.546875 -0.328125 L 3.546875 -6.5625 L 1.0625 -6.5625 C 1.007812 -6.5625 0.945312 -6.578125 0.875 -6.609375 C 0.8125 -6.648438 0.78125 -6.75 0.78125 -6.90625 L 0.78125 -7.671875 C 0.78125 -7.816406 0.8125 -7.90625 0.875 -7.9375 C 0.945312 -7.976562 1.007812 -8 1.0625 -8 Z M 7.484375 -8 "/></g></g><g style="fill:#002e6b;fill-opacity:1;"><g transform="translate(82.399438, 17.396854)"><path style="stroke:none" d="M 6.609375 -1.734375 C 6.648438 -1.734375 6.707031 -1.710938 6.78125 -1.671875 C 6.851562 -1.640625 6.890625 -1.550781 6.890625 -1.40625 L 6.890625 -0.34375 C 6.890625 -0.1875 6.851562 -0.09375 6.78125 -0.0625 C 6.707031 -0.03125 6.648438 -0.015625 6.609375 -0.015625 L 3.15625 -0.015625 C 2.945312 -0.015625 2.75 -0.0234375 2.5625 -0.046875 C 2.382812 -0.078125 2.222656 -0.117188 2.078125 -0.171875 C 1.753906 -0.285156 1.5 -0.460938 1.3125 -0.703125 C 1.125 -0.960938 0.988281 -1.28125 0.90625 -1.65625 C 0.875 -1.820312 0.84375 -2 0.8125 -2.1875 C 0.789062 -2.382812 0.78125 -2.597656 0.78125 -2.828125 L 0.78125 -2.875 L 0.796875 -4.09375 C 0.816406 -4.164062 0.851562 -4.25 0.90625 -4.34375 C 1.039062 -4.59375 1.257812 -4.726562 1.5625 -4.75 L 6.5625 -4.75 C 6.601562 -4.75 6.660156 -4.726562 6.734375 -4.6875 C 6.804688 -4.65625 6.84375 -4.566406 6.84375 -4.421875 L 6.84375 -3.65625 C 6.84375 -3.507812 6.804688 -3.414062 6.734375 -3.375 C 6.660156 -3.332031 6.601562 -3.3125 6.5625 -3.3125 L 2.234375 -3.3125 C 2.234375 -3.3125 2.226562 -3.273438 2.21875 -3.203125 C 2.21875 -3.140625 2.21875 -3.0625 2.21875 -2.96875 C 2.21875 -2.875 2.21875 -2.789062 2.21875 -2.71875 C 2.21875 -2.65625 2.21875 -2.625 2.21875 -2.625 C 2.21875 -2.59375 2.21875 -2.5625 2.21875 -2.53125 C 2.21875 -2.507812 2.222656 -2.484375 2.234375 -2.453125 C 2.253906 -2.273438 2.304688 -2.128906 2.390625 -2.015625 C 2.472656 -1.921875 2.570312 -1.851562 2.6875 -1.8125 C 2.757812 -1.789062 2.832031 -1.769531 2.90625 -1.75 C 2.988281 -1.738281 3.082031 -1.734375 3.1875 -1.734375 Z M 1.625 -4.671875 Z M 6.625 -8.015625 C 6.65625 -8.015625 6.707031 -7.992188 6.78125 -7.953125 C 6.851562 -7.910156 6.890625 -7.816406 6.890625 -7.671875 L 6.890625 -6.90625 C 6.890625 -6.757812 6.851562 -6.664062 6.78125 -6.625 C 6.707031 -6.582031 6.65625 -6.5625 6.625 -6.5625 L 1.03125 -6.578125 C 1 -6.578125 0.945312 -6.59375 0.875 -6.625 C 0.8125 -6.664062 0.78125 -6.757812 0.78125 -6.90625 L 0.78125 -7.671875 C 0.78125 -7.816406 0.8125 -7.910156 0.875 -7.953125 C 0.945312 -7.992188 1 -8.015625 1.03125 -8.015625 Z M 6.625 -8.015625 "/></g></g><g style="fill:#002e6b;fill-opacity:1;"><g transform="translate(90.548413, 17.396854)"><path style="stroke:none" d="M 6.703125 -8 C 6.742188 -8 6.800781 -7.976562 6.875 -7.9375 C 6.945312 -7.894531 6.984375 -7.800781 6.984375 -7.65625 L 6.984375 -6.90625 C 6.984375 -6.75 6.945312 -6.648438 6.875 -6.609375 C 6.800781 -6.578125 6.742188 -6.5625 6.703125 -6.5625 L 3.21875 -6.5625 C 3 -6.5625 2.832031 -6.535156 2.71875 -6.484375 C 2.601562 -6.453125 2.503906 -6.382812 2.421875 -6.28125 C 2.347656 -6.175781 2.296875 -6.03125 2.265625 -5.84375 C 2.242188 -5.757812 2.226562 -5.65625 2.21875 -5.53125 C 2.21875 -5.414062 2.21875 -5.285156 2.21875 -5.140625 L 2.21875 -2.875 C 2.21875 -2.726562 2.21875 -2.59375 2.21875 -2.46875 C 2.226562 -2.351562 2.242188 -2.242188 2.265625 -2.140625 C 2.285156 -2.054688 2.304688 -1.976562 2.328125 -1.90625 C 2.359375 -1.832031 2.390625 -1.769531 2.421875 -1.71875 C 2.503906 -1.613281 2.601562 -1.539062 2.71875 -1.5 C 2.832031 -1.457031 3 -1.4375 3.21875 -1.4375 L 6.703125 -1.4375 C 6.742188 -1.4375 6.800781 -1.414062 6.875 -1.375 C 6.945312 -1.332031 6.984375 -1.238281 6.984375 -1.09375 L 6.984375 -0.328125 C 6.984375 -0.179688 6.945312 -0.0859375 6.875 -0.046875 C 6.800781 -0.00390625 6.742188 0.015625 6.703125 0.015625 L 3.171875 0.015625 C 2.753906 0.015625 2.390625 -0.0390625 2.078125 -0.15625 C 1.773438 -0.257812 1.523438 -0.4375 1.328125 -0.6875 C 1.128906 -0.945312 0.988281 -1.265625 0.90625 -1.640625 C 0.851562 -1.835938 0.816406 -2.050781 0.796875 -2.28125 C 0.785156 -2.507812 0.78125 -2.757812 0.78125 -3.03125 L 0.78125 -4.953125 C 0.78125 -5.222656 0.785156 -5.472656 0.796875 -5.703125 C 0.816406 -5.941406 0.851562 -6.15625 0.90625 -6.34375 C 0.988281 -6.726562 1.128906 -7.039062 1.328125 -7.28125 C 1.515625 -7.53125 1.765625 -7.710938 2.078125 -7.828125 C 2.390625 -7.941406 2.753906 -8 3.171875 -8 Z M 6.703125 -8 "/></g></g><g style="fill:#002e6b;fill-opacity:1;"><g transform="translate(98.784695, 17.396854)"><path style="stroke:none" d="M 7.046875 -8 C 7.085938 -8 7.144531 -7.976562 7.21875 -7.9375 C 7.289062 -7.894531 7.328125 -7.800781 7.328125 -7.65625 L 7.328125 -0.328125 C 7.328125 -0.179688 7.289062 -0.0859375 7.21875 -0.046875 C 7.144531 -0.00390625 7.085938 0.015625 7.046875 0.015625 L 6.15625 0.015625 C 6.113281 0.015625 6.054688 -0.00390625 5.984375 -0.046875 C 5.921875 -0.0859375 5.890625 -0.179688 5.890625 -0.328125 L 5.890625 -3.3125 L 2.21875 -3.3125 L 2.21875 -0.328125 C 2.21875 -0.179688 2.179688 -0.0859375 2.109375 -0.046875 C 2.046875 -0.00390625 1.988281 0.015625 1.9375 0.015625 L 1.0625 0.015625 C 1.007812 0.015625 0.945312 -0.00390625 0.875 -0.046875 C 0.8125 -0.0859375 0.78125 -0.179688 0.78125 -0.328125 L 0.78125 -7.65625 C 0.78125 -7.800781 0.8125 -7.894531 0.875 -7.9375 C 0.945312 -7.976562 1.007812 -8 1.0625 -8 L 1.9375 -8 C 1.988281 -8 2.046875 -7.976562 2.109375 -7.9375 C 2.179688 -7.894531 2.21875 -7.800781 2.21875 -7.65625 L 2.21875 -4.75 L 5.890625 -4.75 L 5.890625 -7.65625 C 5.890625 -7.800781 5.921875 -7.894531 5.984375 -7.9375 C 6.054688 -7.976562 6.113281 -8 6.15625 -8 Z M 7.046875 -8 "/></g></g><g style="fill:#002e6b;fill-opacity:1;"><g transform="translate(107.375748, 17.396854)"><path style="stroke:none" d=""/></g></g><g clip-rule="nonzero" clip-path="url(#5ba5cf01e9)"><g clip-rule="nonzero" clip-path="url(#5b1ca62209)"><path style=" stroke:none;fill-rule:nonzero;fill:url(#c6bff77334);" d="M 3.011719 2.265625 L 3.011719 27.679688 L 28.386719 27.679688 L 28.386719 2.265625 Z M 3.011719 2.265625 "/></g></g></g></svg>